<svg width="629" height="243" viewBox="0 0 629 243" fill="none" xmlns="http://www.w3.org/2000/svg">
<path d="M108.056 54.7L94.0563 45.7C91.1563 51.1 86.8563 55.1 78.0563 55.1C67.6563 55.1 61.3563 46.7 61.3563 36C61.3563 25.3 67.4563 17 77.4563 17C86.0563 17 90.2563 21.1 92.8563 25.1L106.556 15.8C100.856 7.4 91.8563 1.2 77.1563 1.2C58.9563 1.2 42.7563 15.5 42.7563 36C42.7563 56.5 59.0563 70.9 78.1563 70.9C91.9563 70.9 101.356 66 108.056 54.7ZM159.899 28.1H136.299V2H118.099V70H136.299V43.4H159.899V70H178.099V2H159.899V28.1ZM235.877 70H254.677L221.677 0.799997C221.377 0.0999939 220.777 0.0999939 220.477 0.799997L187.377 70H205.177L208.577 61.8H232.277L235.877 70ZM220.277 34.2L226.477 48.6H214.177L220.277 34.2ZM323.743 71.2C324.843 72.1 325.143 71.8 325.143 71V2H308.043V36.1L265.343 0.899996C264.243 -4.76837e-06 263.943 0.499995 263.943 1.1V70H281.043V36.1L323.743 71.2ZM386.69 52.9C383.79 54.3 380.09 55.6 373.49 55.6C361.49 55.6 355.29 46.7 355.29 36C355.29 25.3 361.39 17 372.49 17C379.29 17 384.09 19.9 387.49 24.3L400.19 13.3C394.29 5.7 384.89 1.2 372.89 1.2C353.29 1.2 336.69 15.5 336.69 36C336.69 56.5 353.29 70.9 373.29 70.9C388.39 70.9 396.59 66.7 402.89 61.5V32.1H373.19V46.1H386.69V52.9ZM415.363 70H433.563V2H415.363V70ZM508.524 71.2C509.624 72.1 509.924 71.8 509.924 71V2H492.824V36.1L450.124 0.899996C449.024 -4.76837e-06 448.724 0.499995 448.724 1.1V70H465.824V36.1L508.524 71.2ZM571.471 52.9C568.571 54.3 564.871 55.6 558.271 55.6C546.271 55.6 540.071 46.7 540.071 36C540.071 25.3 546.171 17 557.271 17C564.071 17 568.871 19.9 572.271 24.3L584.971 13.3C579.071 5.7 569.671 1.2 557.671 1.2C538.071 1.2 521.471 15.5 521.471 36C521.471 56.5 538.071 70.9 558.071 70.9C573.171 70.9 581.371 66.7 587.671 61.5V32.1H557.971V46.1H571.471V52.9ZM46.9332 120.3L63.9332 156.8C64.3332 157.6 64.8332 157.6 65.1332 156.8L93.2332 88H75.0332L62.9332 119.9L47.6332 86.7C47.4332 86.2 47.0332 86.2 46.8332 86.7L32.2332 119.9L19.5332 88H0.433203L28.9332 156.8C29.2332 157.5 29.8332 157.5 30.1332 156.8L46.9332 120.3ZM130.219 156.9C149.819 156.9 166.719 142.5 166.719 122C166.719 101.5 149.819 87.2 130.219 87.2C110.619 87.2 93.7191 101.5 93.7191 122C93.7191 142.5 110.619 156.9 130.219 156.9ZM130.219 141.1C118.819 141.1 112.319 132.7 112.319 122C112.319 111.3 118.819 103 130.219 103C141.619 103 148.119 111.3 148.119 122C148.119 132.7 141.619 141.1 130.219 141.1ZM196.442 134.7H202.642L214.642 156H234.342L220.242 131.9C228.342 128.2 232.642 121.1 232.642 112.1C232.642 98.2 223.042 88 205.742 88H178.242V156H196.442V134.7ZM196.442 120.8V103.4H204.842C211.042 103.4 214.342 106.5 214.342 112.1C214.342 117.7 211.042 120.8 204.842 120.8H196.442ZM264.188 116.2V88H245.988V156H264.188V138.3L269.888 131.3L286.088 156H307.588L282.288 117.5L304.888 88H285.188L264.188 116.2ZM335.352 136.5H344.652C361.952 136.5 371.552 126.3 371.552 112.4C371.552 98.5 361.952 88 344.652 88H317.152V156H335.352V136.5ZM335.352 121.3V103.4H343.752C349.952 103.4 353.252 106.8 353.252 112.4C353.252 118 349.952 121.3 343.752 121.3H335.352ZM382.945 156H430.045V140.7H401.145V88H382.945V156ZM485.39 156H504.19L471.19 86.8C470.89 86.1 470.29 86.1 469.99 86.8L436.89 156H454.69L458.09 147.8H481.79L485.39 156ZM469.79 120.2L475.99 134.6H463.69L469.79 120.2ZM568.914 140.7L554.914 131.7C552.014 137.1 547.714 141.1 538.914 141.1C528.514 141.1 522.214 132.7 522.214 122C522.214 111.3 528.314 103 538.314 103C546.914 103 551.114 107.1 553.714 111.1L567.414 101.8C561.714 93.4 552.714 87.2 538.014 87.2C519.814 87.2 503.614 101.5 503.614 122C503.614 142.5 519.914 156.9 539.014 156.9C552.814 156.9 562.214 152 568.914 140.7ZM578.957 156H628.057V140.7H597.157V129H621.757V114.5H597.157V103.3H626.657V88H578.957V156ZM98.9672 243C116.967 243 124.767 234 124.767 221.5C124.767 211.9 120.167 205.4 106.567 200.9L97.5672 197.9C94.2672 196.8 92.7672 195.5 92.7672 192.9C92.7672 190.2 94.9672 188.2 99.3672 188.2C104.767 188.2 108.367 190.2 111.167 193.1L121.567 182.2C117.567 177.5 110.367 173.2 98.3672 173.2C86.2672 173.2 75.1672 180.1 75.1672 193.5C75.1672 204.7 82.1672 210.7 92.0672 214L100.067 216.7C104.567 218.2 106.767 219.6 106.767 222.5C106.767 226.3 103.567 227.9 98.1672 227.9C91.3672 227.9 87.2672 224.6 83.9672 220.5L70.7672 230.4C74.9672 236 83.6672 243 98.9672 243ZM136.103 242H185.203V226.7H154.303V215H178.903V200.5H154.303V189.3H183.803V174H136.103V242ZM258.037 226.7L244.037 217.7C241.137 223.1 236.837 227.1 228.037 227.1C217.637 227.1 211.337 218.7 211.337 208C211.337 197.3 217.437 189 227.437 189C236.037 189 240.237 193.1 242.837 197.1L256.537 187.8C250.837 179.4 241.837 173.2 227.137 173.2C208.937 173.2 192.737 187.5 192.737 208C192.737 228.5 209.037 242.9 228.137 242.9C241.937 242.9 251.337 238 258.037 226.7ZM296.88 243C313.88 243 326.38 234 326.38 215.7V174H308.18V215.5C308.18 223.2 304.58 227.6 296.88 227.6C289.18 227.6 285.58 223.2 285.58 215.5V174H267.38V215.7C267.38 234 279.88 243 296.88 243ZM358.713 220.7H364.913L376.913 242H396.613L382.513 217.9C390.613 214.2 394.913 207.1 394.913 198.1C394.913 184.2 385.313 174 368.013 174H340.513V242H358.713V220.7ZM358.713 206.8V189.4H367.113C373.313 189.4 376.613 192.5 376.613 198.1C376.613 203.7 373.313 206.8 367.113 206.8H358.713ZM408.659 242H426.859V174H408.659V242ZM456.421 242H474.621V189.3H492.621V174H438.421V189.3H456.421V242ZM522.287 215.7V242H540.487V215.2L564.187 174H545.087L531.687 198.9L518.287 174H498.287L522.287 215.7Z" fill="white"/>
</svg>
